<?xml version="1.0" encoding="utf-8"?>
<!-- Generator: Adobe Illustrator 18.1.0, SVG Export Plug-In . SVG Version: 6.00 Build 0)  -->
<svg version="1.1" id="Artwork" xmlns="http://www.w3.org/2000/svg" xmlns:xlink="http://www.w3.org/1999/xlink" x="0px" y="0px"
	 viewBox="0 0 5669.3 5669.3" enable-background="new 0 0 5669.3 5669.3" xml:space="preserve">
<g>
	<path fill="#BFBFBF" d="M5181,2698.6c0,0-1303.2-1295.4-2346.4-1295.4S488.3,2698.6,488.3,2698.6c-80.1,75.1-80.8,198.4,0,272.1
		c0,0,1303.2,1295.4,2346.4,1295.4S5181,2970.7,5181,2970.7C5260.4,2895.6,5261.8,2773,5181,2698.6z M2844.6,3877.8
		c-573.3,0-1038.9-464.9-1038.9-1038.9S2270.6,1800,2844.6,1800s1038.9,465.6,1038.9,1038.9S3417.9,3877.8,2844.6,3877.8z"/>
	<path fill="#BFBFBF" d="M2832.5,2167.1c-364.3,0-659.8,296.9-659.8,661.9s295.5,661.9,659.8,661.9s659.8-296.9,659.8-661.9
		C3492.3,2464,3196.8,2167.1,2832.5,2167.1z M3081.3,2831.1c-112.7,0-204.8-92.1-204.8-206.2s92.1-206.2,204.8-206.2
		c112.7,0,204.8,92.1,204.8,206.2S3195.4,2831.1,3081.3,2831.1z"/>
</g>
</svg>
