<?xml version="1.0" encoding="utf-8"?>
<!-- Generator: Adobe Illustrator 18.1.0, SVG Export Plug-In . SVG Version: 6.00 Build 0)  -->
<svg version="1.1" id="Capa_1" xmlns="http://www.w3.org/2000/svg" xmlns:xlink="http://www.w3.org/1999/xlink" x="0px" y="0px"
	 viewBox="-2534 2535.3 600 600" enable-background="new -2534 2535.3 600 600" xml:space="preserve">
<path fill="#BFBFBF" d="M-2075.3,2700.3c-19.9-19.9-46.3-30.8-74.4-30.8c-28.1,0-54.6,10.9-74.4,30.8l-9.8,9.8l-9.8-9.8
	c-19.9-19.9-46.3-30.8-74.4-30.8c-28.1,0-54.6,10.9-74.4,30.8c-41,41.1-41,107.8,0,148.9l147.1,147.1c2.4,2.4,5.4,3.9,8.5,4.5
	c1,0.2,2.1,0.3,3.2,0.3c4.2,0,8.3-1.6,11.5-4.8l147.1-147.1C-2034.3,2808.2-2034.3,2741.4-2075.3,2700.3z M-2098.3,2826.2
	l-135.7,135.7l-135.7-135.7c-28.4-28.4-28.4-74.5,0-102.9c13.7-13.7,32-21.3,51.4-21.3c19.4,0,37.7,7.6,51.4,21.3l21.3,21.3
	c6.1,6.1,16.9,6.1,23,0l21.3-21.3c13.7-13.7,32-21.3,51.4-21.3c19.4,0,37.7,7.6,51.4,21.3
	C-2069.9,2751.7-2069.9,2797.9-2098.3,2826.2z"/>
</svg>
