<?xml version="1.0" encoding="utf-8"?>
<!-- Generator: Adobe Illustrator 18.1.0, SVG Export Plug-In . SVG Version: 6.00 Build 0)  -->
<svg version="1.1" id="Capa_1" xmlns="http://www.w3.org/2000/svg" xmlns:xlink="http://www.w3.org/1999/xlink" x="0px" y="0px"
	 viewBox="-2802 2803.3 64 64" enable-background="new -2802 2803.3 64 64" xml:space="preserve">
<g>
	<path fill="#00FFF8" d="M-2793,2838.1v-12c0-1.7-1.3-3-3-3s-3,1.3-3,3v12c0,1.7,1.3,3,3,3S-2793,2839.8-2793,2838.1z"/>
	<path fill="#00FFF8" d="M-2783.3,2850.6v-35c0-1.7-1.3-3-3-3s-3,1.3-3,3v35c0,1.7,1.3,3,3,3S-2783.3,2852.3-2783.3,2850.6z"/>
	<path fill="#00FFF8" d="M-2773.6,2845.4v-19.3c0-1.7-1.3-3-3-3s-3,1.3-3,3v19.3c0,1.7,1.3,3,3,3S-2773.6,2847.1-2773.6,2845.4z"/>
	<path fill="#00FFF8" d="M-2747.3,2829.1c-1.7,0-3,1.3-3,3v16.7c0,1.7,1.3,3,3,3s3-1.3,3-3v-16.7
		C-2744.3,2830.5-2745.6,2829.1-2747.3,2829.1z"/>
	<path fill="#00FFF8" d="M-2757,2808.1c-1.7,0-3,1.3-3,3v45.5c0,1.7,1.3,3,3,3s3-1.3,3-3v-45.5
		C-2754,2809.5-2755.3,2808.1-2757,2808.1z"/>
	<path fill="#00FFF8" d="M-2766.6,2851.8c1.7,0,3-1.3,3-3v-28.9c0-1.7-1.3-3-3-3s-3,1.3-3,3v28.9
		C-2769.6,2850.4-2768.3,2851.8-2766.6,2851.8z"/>
</g>
</svg>
