<?xml version="1.0" encoding="iso-8859-1"?>
<!-- Generator: Adobe Illustrator 17.0.0, SVG Export Plug-In . SVG Version: 6.00 Build 0)  -->
<!DOCTYPE svg PUBLIC "-//W3C//DTD SVG 1.1//EN" "http://www.w3.org/Graphics/SVG/1.1/DTD/svg11.dtd">
<svg version="1.1" id="Capa_1" xmlns="http://www.w3.org/2000/svg" xmlns:xlink="http://www.w3.org/1999/xlink" x="0px" y="0px"
	 width="64px" height="64px" viewBox="0 0 64 64" style="enable-background:new 0 0 64 64;" xml:space="preserve">
<g>
	<path d="M9.041,34.819v-12c0-1.657-1.343-3-3-3c-1.657,0-3,1.343-3,3v12c0,1.657,1.343,3,3,3
		C7.698,37.819,9.041,36.476,9.041,34.819z"/>
	<path d="M18.708,47.32V12.319c0-1.657-1.343-3-3-3s-3,1.343-3,3V47.32c0,1.657,1.343,3,3,3S18.708,48.977,18.708,47.32z"/>
	<path d="M28.375,42.153V22.819c0-1.657-1.343-3-3-3s-3,1.343-3,3v19.334c0,1.657,1.343,3,3,3S28.375,43.81,28.375,42.153z"/>
	<path d="M54.708,25.82c-1.657,0-3,1.343-3,3v16.668c0,1.657,1.343,3,3,3s3-1.343,3-3V28.82
		C57.708,27.163,56.365,25.82,54.708,25.82z"/>
	<path d="M45.042,4.819c-1.657,0-3,1.343-3,3V53.32c0,1.657,1.343,3,3,3s3-1.343,3-3V7.819C48.042,6.162,46.698,4.819,45.042,4.819z
		"/>
	<path d="M35.375,48.488c1.657,0,3-1.343,3-3V16.57c0-1.657-1.343-3-3-3c-1.657,0-3,1.343-3,3v28.918
		C32.375,47.145,33.718,48.488,35.375,48.488z"/>
</g>
</svg>
