<?xml version="1.0" encoding="utf-8"?>
<!-- Generator: Adobe Illustrator 18.1.0, SVG Export Plug-In . SVG Version: 6.00 Build 0)  -->
<svg version="1.1" id="Capa_1" xmlns="http://www.w3.org/2000/svg" xmlns:xlink="http://www.w3.org/1999/xlink" x="0px" y="0px"
	 viewBox="-2726 2762.3 216 146" enable-background="new -2726 2762.3 216 146" xml:space="preserve">
<path fill="#BFBFBF" d="M-2553.2,2885.3l-27.9-27.9c6.7-9.7,10.1-20.6,10.1-32.5c0-7.8-1.5-15.2-4.5-22.3c-3-7.1-7.1-13.2-12.2-18.3
	c-5.1-5.1-11.2-9.2-18.3-12.2c-7.1-3-14.5-4.5-22.3-4.5c-7.8,0-15.2,1.5-22.3,4.5c-7.1,3-13.2,7.1-18.3,12.2
	c-5.1,5.1-9.2,11.2-12.2,18.3c-3,7.1-4.5,14.5-4.5,22.3c0,7.8,1.5,15.2,4.5,22.3c3,7.1,7.1,13.2,12.2,18.3
	c5.1,5.1,11.2,9.2,18.3,12.2c7.1,3,14.5,4.5,22.3,4.5c12,0,22.8-3.4,32.5-10.1l27.9,27.9c2,2.1,4.4,3.1,7.3,3.1c2.8,0,5.3-1,7.3-3.1
	c2.1-2.1,3.1-4.5,3.1-7.3C-2550.2,2889.8-2551.2,2887.3-2553.2,2885.3z M-2602.6,2850.6c-7.1,7.1-15.7,10.7-25.8,10.7
	c-10,0-18.6-3.6-25.8-10.7c-7.1-7.1-10.7-15.7-10.7-25.8c0-10,3.6-18.6,10.7-25.8c7.1-7.1,15.7-10.7,25.8-10.7
	c10,0,18.6,3.6,25.8,10.7c7.1,7.1,10.7,15.7,10.7,25.8C-2591.9,2834.9-2595.5,2843.5-2602.6,2850.6z"/>
</svg>
